<mxfile host="Electron" modified="2023-05-20T14:02:06.370Z" agent="Mozilla/5.0 (Windows NT 10.0; Win64; x64) AppleWebKit/537.36 (KHTML, like Gecko) draw.io/21.2.8 Chrome/112.0.5615.165 Electron/24.2.0 Safari/537.36" etag="7ieRw4WBeYzzekEeNzIs" version="21.2.8" type="device">
  <diagram name="Page-1" id="W1kCUgfqaAOnHqA4FMLe">
    <mxGraphModel dx="1036" dy="1715" grid="1" gridSize="10" guides="0" tooltips="1" connect="1" arrows="1" fold="1" page="1" pageScale="1" pageWidth="850" pageHeight="1100" math="0" shadow="0">
      <root>
        <mxCell id="0" />
        <mxCell id="1" parent="0" />
        <mxCell id="Q4x0eT5ELp3qWUwaTbMl-21" style="edgeStyle=orthogonalEdgeStyle;rounded=0;orthogonalLoop=1;jettySize=auto;html=1;fontFamily=Helvetica;" parent="1" source="Q4x0eT5ELp3qWUwaTbMl-1" target="Q4x0eT5ELp3qWUwaTbMl-19" edge="1">
          <mxGeometry relative="1" as="geometry" />
        </mxCell>
        <mxCell id="Q4x0eT5ELp3qWUwaTbMl-1" value="START" style="strokeWidth=2;html=1;shape=mxgraph.flowchart.terminator;whiteSpace=wrap;fillColor=#dae8fc;strokeColor=#6c8ebf;fontFamily=Helvetica;" parent="1" vertex="1">
          <mxGeometry x="275" y="-240" width="80" height="40" as="geometry" />
        </mxCell>
        <mxCell id="Q4x0eT5ELp3qWUwaTbMl-13" value="INPUT" style="edgeStyle=orthogonalEdgeStyle;rounded=0;orthogonalLoop=1;jettySize=auto;html=1;fontFamily=Helvetica;" parent="1" source="Q4x0eT5ELp3qWUwaTbMl-10" target="Q4x0eT5ELp3qWUwaTbMl-12" edge="1">
          <mxGeometry relative="1" as="geometry" />
        </mxCell>
        <mxCell id="Q4x0eT5ELp3qWUwaTbMl-30" value="OUTPUT" style="edgeStyle=orthogonalEdgeStyle;rounded=0;orthogonalLoop=1;jettySize=auto;html=1;fontFamily=Helvetica;" parent="1" source="Q4x0eT5ELp3qWUwaTbMl-10" target="Q4x0eT5ELp3qWUwaTbMl-29" edge="1">
          <mxGeometry relative="1" as="geometry" />
        </mxCell>
        <mxCell id="Q4x0eT5ELp3qWUwaTbMl-63" value="Wrong&lt;br&gt;Direction" style="edgeStyle=orthogonalEdgeStyle;rounded=0;orthogonalLoop=1;jettySize=auto;html=1;fontFamily=Helvetica;fontSize=12;fontColor=default;" parent="1" source="Q4x0eT5ELp3qWUwaTbMl-10" target="Q4x0eT5ELp3qWUwaTbMl-58" edge="1">
          <mxGeometry relative="1" as="geometry" />
        </mxCell>
        <mxCell id="Q4x0eT5ELp3qWUwaTbMl-10" value="Switch on DIO_direction" style="rhombus;whiteSpace=wrap;html=1;fillColor=#fff2cc;strokeColor=#d6b656;strokeWidth=2;fontFamily=Helvetica;" parent="1" vertex="1">
          <mxGeometry x="260" y="-80" width="110" height="80" as="geometry" />
        </mxCell>
        <mxCell id="Q4x0eT5ELp3qWUwaTbMl-39" style="edgeStyle=orthogonalEdgeStyle;rounded=0;orthogonalLoop=1;jettySize=auto;html=1;fontFamily=Helvetica;" parent="1" source="Q4x0eT5ELp3qWUwaTbMl-12" target="Q4x0eT5ELp3qWUwaTbMl-38" edge="1">
          <mxGeometry relative="1" as="geometry" />
        </mxCell>
        <mxCell id="Q4x0eT5ELp3qWUwaTbMl-60" value="Wrong&lt;br&gt;PORT_#" style="edgeStyle=orthogonalEdgeStyle;rounded=0;orthogonalLoop=1;jettySize=auto;html=1;fontFamily=Helvetica;fontSize=12;fontColor=default;" parent="1" source="Q4x0eT5ELp3qWUwaTbMl-12" target="Q4x0eT5ELp3qWUwaTbMl-52" edge="1">
          <mxGeometry x="-0.4737" y="-19" relative="1" as="geometry">
            <mxPoint as="offset" />
          </mxGeometry>
        </mxCell>
        <mxCell id="Q4x0eT5ELp3qWUwaTbMl-12" value="Switch on DIO_portNumber" style="rhombus;whiteSpace=wrap;html=1;fillColor=#fff2cc;strokeColor=#d6b656;strokeWidth=2;fontFamily=Helvetica;" parent="1" vertex="1">
          <mxGeometry x="662.5" y="39" width="135" height="80" as="geometry" />
        </mxCell>
        <mxCell id="Q4x0eT5ELp3qWUwaTbMl-27" style="edgeStyle=orthogonalEdgeStyle;rounded=0;orthogonalLoop=1;jettySize=auto;html=1;entryX=0.5;entryY=0;entryDx=0;entryDy=0;fontFamily=Helvetica;" parent="1" source="Q4x0eT5ELp3qWUwaTbMl-17" target="Q4x0eT5ELp3qWUwaTbMl-26" edge="1">
          <mxGeometry relative="1" as="geometry" />
        </mxCell>
        <mxCell id="Q4x0eT5ELp3qWUwaTbMl-17" value="CLR_BIT(DDR#, DIO_pinNumber)" style="whiteSpace=wrap;html=1;fillColor=#d5e8d4;strokeColor=#82b366;strokeWidth=2;fontFamily=Helvetica;" parent="1" vertex="1">
          <mxGeometry x="670" y="260" width="120" height="60" as="geometry" />
        </mxCell>
        <mxCell id="Q4x0eT5ELp3qWUwaTbMl-24" style="edgeStyle=orthogonalEdgeStyle;rounded=0;orthogonalLoop=1;jettySize=auto;html=1;exitX=0.5;exitY=1;exitDx=0;exitDy=0;fontFamily=Helvetica;" parent="1" source="Q4x0eT5ELp3qWUwaTbMl-19" target="Q4x0eT5ELp3qWUwaTbMl-10" edge="1">
          <mxGeometry relative="1" as="geometry" />
        </mxCell>
        <mxCell id="Q4x0eT5ELp3qWUwaTbMl-19" value="Initialize returnValue = DIO_OK" style="whiteSpace=wrap;html=1;fillColor=#d5e8d4;strokeColor=#82b366;strokeWidth=2;fontFamily=Helvetica;" parent="1" vertex="1">
          <mxGeometry x="240" y="-170" width="150" height="60" as="geometry" />
        </mxCell>
        <mxCell id="Q4x0eT5ELp3qWUwaTbMl-23" style="edgeStyle=orthogonalEdgeStyle;rounded=0;orthogonalLoop=1;jettySize=auto;html=1;exitX=0.5;exitY=1;exitDx=0;exitDy=0;fontFamily=Helvetica;" parent="1" source="Q4x0eT5ELp3qWUwaTbMl-17" target="Q4x0eT5ELp3qWUwaTbMl-17" edge="1">
          <mxGeometry relative="1" as="geometry" />
        </mxCell>
        <mxCell id="Q4x0eT5ELp3qWUwaTbMl-68" style="edgeStyle=orthogonalEdgeStyle;rounded=0;orthogonalLoop=1;jettySize=auto;html=1;fontFamily=Helvetica;fontSize=12;fontColor=default;" parent="1" source="Q4x0eT5ELp3qWUwaTbMl-26" target="Q4x0eT5ELp3qWUwaTbMl-66" edge="1">
          <mxGeometry relative="1" as="geometry">
            <Array as="points">
              <mxPoint x="730" y="500" />
              <mxPoint x="425" y="500" />
            </Array>
          </mxGeometry>
        </mxCell>
        <mxCell id="Q4x0eT5ELp3qWUwaTbMl-26" value="returnValue = DIO_OK" style="whiteSpace=wrap;html=1;fillColor=#d5e8d4;strokeColor=#82b366;strokeWidth=2;fontFamily=Helvetica;" parent="1" vertex="1">
          <mxGeometry x="670" y="340" width="120" height="60" as="geometry" />
        </mxCell>
        <mxCell id="Q4x0eT5ELp3qWUwaTbMl-32" value="TRUE" style="edgeStyle=orthogonalEdgeStyle;rounded=0;orthogonalLoop=1;jettySize=auto;html=1;fontFamily=Helvetica;" parent="1" source="Q4x0eT5ELp3qWUwaTbMl-29" target="Q4x0eT5ELp3qWUwaTbMl-31" edge="1">
          <mxGeometry relative="1" as="geometry" />
        </mxCell>
        <mxCell id="Q4x0eT5ELp3qWUwaTbMl-59" value="Wrong&lt;br&gt;PORT_#" style="edgeStyle=orthogonalEdgeStyle;rounded=0;orthogonalLoop=1;jettySize=auto;html=1;fontFamily=Helvetica;fontSize=12;fontColor=default;" parent="1" source="Q4x0eT5ELp3qWUwaTbMl-29" target="Q4x0eT5ELp3qWUwaTbMl-52" edge="1">
          <mxGeometry x="-0.6471" y="19" relative="1" as="geometry">
            <mxPoint x="1" as="offset" />
          </mxGeometry>
        </mxCell>
        <mxCell id="Q4x0eT5ELp3qWUwaTbMl-29" value="Switch on DIO_portNumber" style="rhombus;whiteSpace=wrap;html=1;fillColor=#fff2cc;strokeColor=#d6b656;strokeWidth=2;fontFamily=Helvetica;" parent="1" vertex="1">
          <mxGeometry x="247.5" y="39" width="135" height="80" as="geometry" />
        </mxCell>
        <mxCell id="Q4x0eT5ELp3qWUwaTbMl-56" value="TRUE" style="edgeStyle=orthogonalEdgeStyle;rounded=0;orthogonalLoop=1;jettySize=auto;html=1;fontFamily=Helvetica;fontSize=12;fontColor=default;" parent="1" source="Q4x0eT5ELp3qWUwaTbMl-31" target="Q4x0eT5ELp3qWUwaTbMl-42" edge="1">
          <mxGeometry relative="1" as="geometry" />
        </mxCell>
        <mxCell id="Q4x0eT5ELp3qWUwaTbMl-61" value="Wrong&lt;br&gt;PIN_#" style="edgeStyle=orthogonalEdgeStyle;rounded=0;orthogonalLoop=1;jettySize=auto;html=1;fontFamily=Helvetica;fontSize=12;fontColor=default;" parent="1" source="Q4x0eT5ELp3qWUwaTbMl-31" target="Q4x0eT5ELp3qWUwaTbMl-53" edge="1">
          <mxGeometry x="-0.5556" y="19" relative="1" as="geometry">
            <mxPoint as="offset" />
          </mxGeometry>
        </mxCell>
        <mxCell id="Q4x0eT5ELp3qWUwaTbMl-31" value="Switch on DIO_pinNumber" style="rhombus;whiteSpace=wrap;html=1;fillColor=#fff2cc;strokeColor=#d6b656;strokeWidth=2;fontFamily=Helvetica;" parent="1" vertex="1">
          <mxGeometry x="250" y="149" width="130" height="80" as="geometry" />
        </mxCell>
        <mxCell id="Q4x0eT5ELp3qWUwaTbMl-57" value="TRUE" style="edgeStyle=orthogonalEdgeStyle;rounded=0;orthogonalLoop=1;jettySize=auto;html=1;fontFamily=Helvetica;fontSize=12;fontColor=default;" parent="1" source="Q4x0eT5ELp3qWUwaTbMl-38" target="Q4x0eT5ELp3qWUwaTbMl-17" edge="1">
          <mxGeometry relative="1" as="geometry" />
        </mxCell>
        <mxCell id="Q4x0eT5ELp3qWUwaTbMl-62" value="Wrong&lt;br&gt;PIN_#" style="edgeStyle=orthogonalEdgeStyle;rounded=0;orthogonalLoop=1;jettySize=auto;html=1;fontFamily=Helvetica;fontSize=12;fontColor=default;" parent="1" source="Q4x0eT5ELp3qWUwaTbMl-38" target="Q4x0eT5ELp3qWUwaTbMl-53" edge="1">
          <mxGeometry x="-0.4" y="-19" relative="1" as="geometry">
            <mxPoint as="offset" />
          </mxGeometry>
        </mxCell>
        <mxCell id="Q4x0eT5ELp3qWUwaTbMl-38" value="Switch on DIO_pinNumber" style="rhombus;whiteSpace=wrap;html=1;fillColor=#fff2cc;strokeColor=#d6b656;strokeWidth=2;fontFamily=Helvetica;" parent="1" vertex="1">
          <mxGeometry x="665" y="149" width="130" height="80" as="geometry" />
        </mxCell>
        <mxCell id="Q4x0eT5ELp3qWUwaTbMl-47" style="edgeStyle=orthogonalEdgeStyle;rounded=0;orthogonalLoop=1;jettySize=auto;html=1;fontFamily=Helvetica;" parent="1" source="Q4x0eT5ELp3qWUwaTbMl-42" target="Q4x0eT5ELp3qWUwaTbMl-43" edge="1">
          <mxGeometry relative="1" as="geometry" />
        </mxCell>
        <mxCell id="Q4x0eT5ELp3qWUwaTbMl-42" value="SET_BIT(DDR#, DIO_pinNumber)" style="whiteSpace=wrap;html=1;fillColor=#d5e8d4;strokeColor=#82b366;strokeWidth=2;fontFamily=Helvetica;" parent="1" vertex="1">
          <mxGeometry x="255" y="259" width="120" height="60" as="geometry" />
        </mxCell>
        <mxCell id="Q4x0eT5ELp3qWUwaTbMl-71" style="edgeStyle=orthogonalEdgeStyle;rounded=0;orthogonalLoop=1;jettySize=auto;html=1;fontFamily=Helvetica;fontSize=12;fontColor=default;" parent="1" source="Q4x0eT5ELp3qWUwaTbMl-43" target="Q4x0eT5ELp3qWUwaTbMl-66" edge="1">
          <mxGeometry relative="1" as="geometry">
            <Array as="points">
              <mxPoint x="315" y="500" />
              <mxPoint x="425" y="500" />
            </Array>
          </mxGeometry>
        </mxCell>
        <mxCell id="Q4x0eT5ELp3qWUwaTbMl-43" value="returnValue = DIO_OK" style="whiteSpace=wrap;html=1;fillColor=#d5e8d4;strokeColor=#82b366;strokeWidth=2;fontFamily=Helvetica;" parent="1" vertex="1">
          <mxGeometry x="255" y="339" width="120" height="60" as="geometry" />
        </mxCell>
        <mxCell id="Q4x0eT5ELp3qWUwaTbMl-73" style="edgeStyle=orthogonalEdgeStyle;rounded=0;orthogonalLoop=1;jettySize=auto;html=1;exitX=0.25;exitY=1;exitDx=0;exitDy=0;fontFamily=Helvetica;fontSize=12;fontColor=default;" parent="1" source="Q4x0eT5ELp3qWUwaTbMl-52" target="Q4x0eT5ELp3qWUwaTbMl-66" edge="1">
          <mxGeometry relative="1" as="geometry">
            <Array as="points">
              <mxPoint x="472" y="500" />
              <mxPoint x="425" y="500" />
            </Array>
          </mxGeometry>
        </mxCell>
        <mxCell id="Q4x0eT5ELp3qWUwaTbMl-52" value="returnValue = DIO_WRONG_PORT_NUMBER" style="whiteSpace=wrap;html=1;fillColor=#d5e8d4;strokeColor=#82b366;strokeWidth=2;fontFamily=Helvetica;" parent="1" vertex="1">
          <mxGeometry x="425" y="49" width="190" height="60" as="geometry" />
        </mxCell>
        <mxCell id="Q4x0eT5ELp3qWUwaTbMl-69" style="edgeStyle=orthogonalEdgeStyle;rounded=0;orthogonalLoop=1;jettySize=auto;html=1;fontFamily=Helvetica;fontSize=12;fontColor=default;exitX=0.75;exitY=1;exitDx=0;exitDy=0;" parent="1" source="Q4x0eT5ELp3qWUwaTbMl-53" target="Q4x0eT5ELp3qWUwaTbMl-66" edge="1">
          <mxGeometry relative="1" as="geometry">
            <Array as="points">
              <mxPoint x="568" y="500" />
              <mxPoint x="425" y="500" />
            </Array>
          </mxGeometry>
        </mxCell>
        <mxCell id="Q4x0eT5ELp3qWUwaTbMl-53" value="returnValue = DIO_WRONG_PIN_NUMBER" style="whiteSpace=wrap;html=1;fillColor=#d5e8d4;strokeColor=#82b366;strokeWidth=2;fontFamily=Helvetica;" parent="1" vertex="1">
          <mxGeometry x="425" y="159" width="190" height="60" as="geometry" />
        </mxCell>
        <mxCell id="Q4x0eT5ELp3qWUwaTbMl-72" style="edgeStyle=orthogonalEdgeStyle;rounded=0;orthogonalLoop=1;jettySize=auto;html=1;fontFamily=Helvetica;fontSize=12;fontColor=default;" parent="1" source="Q4x0eT5ELp3qWUwaTbMl-58" target="Q4x0eT5ELp3qWUwaTbMl-66" edge="1">
          <mxGeometry relative="1" as="geometry">
            <Array as="points">
              <mxPoint x="125" y="500" />
            </Array>
          </mxGeometry>
        </mxCell>
        <mxCell id="Q4x0eT5ELp3qWUwaTbMl-58" value="returnValue = DIO_WRONG_DIRECTION" style="whiteSpace=wrap;html=1;fillColor=#d5e8d4;strokeColor=#82b366;strokeWidth=2;fontFamily=Helvetica;" parent="1" vertex="1">
          <mxGeometry x="40" y="78" width="170" height="41" as="geometry" />
        </mxCell>
        <mxCell id="Q4x0eT5ELp3qWUwaTbMl-65" value="END" style="strokeWidth=2;html=1;shape=mxgraph.flowchart.terminator;whiteSpace=wrap;fillColor=#dae8fc;strokeColor=#6c8ebf;fontFamily=Helvetica;" parent="1" vertex="1">
          <mxGeometry x="385" y="617" width="80" height="40" as="geometry" />
        </mxCell>
        <mxCell id="Q4x0eT5ELp3qWUwaTbMl-67" value="" style="edgeStyle=orthogonalEdgeStyle;rounded=0;orthogonalLoop=1;jettySize=auto;html=1;fontFamily=Helvetica;fontSize=12;fontColor=default;" parent="1" source="Q4x0eT5ELp3qWUwaTbMl-66" target="Q4x0eT5ELp3qWUwaTbMl-65" edge="1">
          <mxGeometry relative="1" as="geometry" />
        </mxCell>
        <mxCell id="Q4x0eT5ELp3qWUwaTbMl-66" value="return returnValue" style="whiteSpace=wrap;html=1;fillColor=#d5e8d4;strokeColor=#82b366;strokeWidth=2;fontFamily=Helvetica;" parent="1" vertex="1">
          <mxGeometry x="365" y="537" width="120" height="40" as="geometry" />
        </mxCell>
        <mxCell id="Q4x0eT5ELp3qWUwaTbMl-77" value="&lt;h1&gt;&lt;font&gt;DIO_init&lt;/font&gt;&lt;/h1&gt;" style="text;html=1;strokeColor=none;fillColor=none;spacing=5;spacingTop=-20;whiteSpace=wrap;overflow=hidden;rounded=0;fontSize=12;fontFamily=Helvetica;fontColor=default;" parent="1" vertex="1">
          <mxGeometry x="50" y="-370" width="120" height="40" as="geometry" />
        </mxCell>
        <mxCell id="Q4x0eT5ELp3qWUwaTbMl-115" style="edgeStyle=orthogonalEdgeStyle;rounded=0;orthogonalLoop=1;jettySize=auto;html=1;fontFamily=Helvetica;" parent="1" source="Q4x0eT5ELp3qWUwaTbMl-116" target="Q4x0eT5ELp3qWUwaTbMl-127" edge="1">
          <mxGeometry relative="1" as="geometry" />
        </mxCell>
        <mxCell id="Q4x0eT5ELp3qWUwaTbMl-116" value="START" style="strokeWidth=2;html=1;shape=mxgraph.flowchart.terminator;whiteSpace=wrap;fillColor=#dae8fc;strokeColor=#6c8ebf;fontFamily=Helvetica;" parent="1" vertex="1">
          <mxGeometry x="1114" y="-240" width="80" height="40" as="geometry" />
        </mxCell>
        <mxCell id="Q4x0eT5ELp3qWUwaTbMl-117" value="DIO_LOW" style="edgeStyle=orthogonalEdgeStyle;rounded=0;orthogonalLoop=1;jettySize=auto;html=1;fontFamily=Helvetica;" parent="1" source="Q4x0eT5ELp3qWUwaTbMl-120" target="Q4x0eT5ELp3qWUwaTbMl-123" edge="1">
          <mxGeometry relative="1" as="geometry" />
        </mxCell>
        <mxCell id="Q4x0eT5ELp3qWUwaTbMl-118" value="DIO_HIGH" style="edgeStyle=orthogonalEdgeStyle;rounded=0;orthogonalLoop=1;jettySize=auto;html=1;fontFamily=Helvetica;" parent="1" source="Q4x0eT5ELp3qWUwaTbMl-120" target="Q4x0eT5ELp3qWUwaTbMl-133" edge="1">
          <mxGeometry relative="1" as="geometry" />
        </mxCell>
        <mxCell id="Q4x0eT5ELp3qWUwaTbMl-119" value="Wrong&lt;br&gt;OutputLevel" style="edgeStyle=orthogonalEdgeStyle;rounded=0;orthogonalLoop=1;jettySize=auto;html=1;fontFamily=Helvetica;fontSize=12;fontColor=default;" parent="1" source="Q4x0eT5ELp3qWUwaTbMl-120" target="Q4x0eT5ELp3qWUwaTbMl-149" edge="1">
          <mxGeometry relative="1" as="geometry" />
        </mxCell>
        <mxCell id="Q4x0eT5ELp3qWUwaTbMl-120" value="Switch on DIO_direction" style="rhombus;whiteSpace=wrap;html=1;fillColor=#fff2cc;strokeColor=#d6b656;strokeWidth=2;fontFamily=Helvetica;" parent="1" vertex="1">
          <mxGeometry x="1099" y="-80" width="110" height="80" as="geometry" />
        </mxCell>
        <mxCell id="Q4x0eT5ELp3qWUwaTbMl-121" style="edgeStyle=orthogonalEdgeStyle;rounded=0;orthogonalLoop=1;jettySize=auto;html=1;fontFamily=Helvetica;" parent="1" source="Q4x0eT5ELp3qWUwaTbMl-123" target="Q4x0eT5ELp3qWUwaTbMl-139" edge="1">
          <mxGeometry relative="1" as="geometry" />
        </mxCell>
        <mxCell id="Q4x0eT5ELp3qWUwaTbMl-122" value="Wrong&lt;br&gt;PORT_#" style="edgeStyle=orthogonalEdgeStyle;rounded=0;orthogonalLoop=1;jettySize=auto;html=1;fontFamily=Helvetica;fontSize=12;fontColor=default;" parent="1" source="Q4x0eT5ELp3qWUwaTbMl-123" target="Q4x0eT5ELp3qWUwaTbMl-145" edge="1">
          <mxGeometry x="-0.4737" y="-19" relative="1" as="geometry">
            <mxPoint as="offset" />
          </mxGeometry>
        </mxCell>
        <mxCell id="Q4x0eT5ELp3qWUwaTbMl-123" value="Switch on DIO_portNumber" style="rhombus;whiteSpace=wrap;html=1;fillColor=#fff2cc;strokeColor=#d6b656;strokeWidth=2;fontFamily=Helvetica;" parent="1" vertex="1">
          <mxGeometry x="1501.5" y="39" width="135" height="80" as="geometry" />
        </mxCell>
        <mxCell id="Q4x0eT5ELp3qWUwaTbMl-124" style="edgeStyle=orthogonalEdgeStyle;rounded=0;orthogonalLoop=1;jettySize=auto;html=1;entryX=0.5;entryY=0;entryDx=0;entryDy=0;fontFamily=Helvetica;" parent="1" source="Q4x0eT5ELp3qWUwaTbMl-125" target="Q4x0eT5ELp3qWUwaTbMl-130" edge="1">
          <mxGeometry relative="1" as="geometry" />
        </mxCell>
        <mxCell id="Q4x0eT5ELp3qWUwaTbMl-125" value="CLR_BIT(PORT#, DIO_pinNumber)" style="whiteSpace=wrap;html=1;fillColor=#d5e8d4;strokeColor=#82b366;strokeWidth=2;fontFamily=Helvetica;" parent="1" vertex="1">
          <mxGeometry x="1509" y="260" width="120" height="60" as="geometry" />
        </mxCell>
        <mxCell id="Q4x0eT5ELp3qWUwaTbMl-126" style="edgeStyle=orthogonalEdgeStyle;rounded=0;orthogonalLoop=1;jettySize=auto;html=1;exitX=0.5;exitY=1;exitDx=0;exitDy=0;fontFamily=Helvetica;" parent="1" source="Q4x0eT5ELp3qWUwaTbMl-127" target="Q4x0eT5ELp3qWUwaTbMl-120" edge="1">
          <mxGeometry relative="1" as="geometry" />
        </mxCell>
        <mxCell id="Q4x0eT5ELp3qWUwaTbMl-127" value="Initialize returnValue = DIO_OK" style="whiteSpace=wrap;html=1;fillColor=#d5e8d4;strokeColor=#82b366;strokeWidth=2;fontFamily=Helvetica;" parent="1" vertex="1">
          <mxGeometry x="1079" y="-170" width="150" height="60" as="geometry" />
        </mxCell>
        <mxCell id="Q4x0eT5ELp3qWUwaTbMl-128" style="edgeStyle=orthogonalEdgeStyle;rounded=0;orthogonalLoop=1;jettySize=auto;html=1;exitX=0.5;exitY=1;exitDx=0;exitDy=0;fontFamily=Helvetica;" parent="1" source="Q4x0eT5ELp3qWUwaTbMl-125" target="Q4x0eT5ELp3qWUwaTbMl-125" edge="1">
          <mxGeometry relative="1" as="geometry" />
        </mxCell>
        <mxCell id="Q4x0eT5ELp3qWUwaTbMl-129" style="edgeStyle=orthogonalEdgeStyle;rounded=0;orthogonalLoop=1;jettySize=auto;html=1;fontFamily=Helvetica;fontSize=12;fontColor=default;" parent="1" source="Q4x0eT5ELp3qWUwaTbMl-130" target="Q4x0eT5ELp3qWUwaTbMl-152" edge="1">
          <mxGeometry relative="1" as="geometry">
            <Array as="points">
              <mxPoint x="1569" y="500" />
              <mxPoint x="1264" y="500" />
            </Array>
          </mxGeometry>
        </mxCell>
        <mxCell id="Q4x0eT5ELp3qWUwaTbMl-130" value="returnValue = DIO_OK" style="whiteSpace=wrap;html=1;fillColor=#d5e8d4;strokeColor=#82b366;strokeWidth=2;fontFamily=Helvetica;" parent="1" vertex="1">
          <mxGeometry x="1509" y="340" width="120" height="60" as="geometry" />
        </mxCell>
        <mxCell id="Q4x0eT5ELp3qWUwaTbMl-131" value="TRUE" style="edgeStyle=orthogonalEdgeStyle;rounded=0;orthogonalLoop=1;jettySize=auto;html=1;fontFamily=Helvetica;" parent="1" source="Q4x0eT5ELp3qWUwaTbMl-133" target="Q4x0eT5ELp3qWUwaTbMl-136" edge="1">
          <mxGeometry relative="1" as="geometry" />
        </mxCell>
        <mxCell id="Q4x0eT5ELp3qWUwaTbMl-132" value="Wrong&lt;br&gt;PORT_#" style="edgeStyle=orthogonalEdgeStyle;rounded=0;orthogonalLoop=1;jettySize=auto;html=1;fontFamily=Helvetica;fontSize=12;fontColor=default;" parent="1" source="Q4x0eT5ELp3qWUwaTbMl-133" target="Q4x0eT5ELp3qWUwaTbMl-145" edge="1">
          <mxGeometry x="-0.6471" y="19" relative="1" as="geometry">
            <mxPoint x="1" as="offset" />
          </mxGeometry>
        </mxCell>
        <mxCell id="Q4x0eT5ELp3qWUwaTbMl-133" value="Switch on DIO_portNumber" style="rhombus;whiteSpace=wrap;html=1;fillColor=#fff2cc;strokeColor=#d6b656;strokeWidth=2;fontFamily=Helvetica;" parent="1" vertex="1">
          <mxGeometry x="1086.5" y="39" width="135" height="80" as="geometry" />
        </mxCell>
        <mxCell id="Q4x0eT5ELp3qWUwaTbMl-134" value="TRUE" style="edgeStyle=orthogonalEdgeStyle;rounded=0;orthogonalLoop=1;jettySize=auto;html=1;fontFamily=Helvetica;fontSize=12;fontColor=default;" parent="1" source="Q4x0eT5ELp3qWUwaTbMl-136" target="Q4x0eT5ELp3qWUwaTbMl-141" edge="1">
          <mxGeometry relative="1" as="geometry" />
        </mxCell>
        <mxCell id="Q4x0eT5ELp3qWUwaTbMl-135" value="Wrong&lt;br&gt;PIN_#" style="edgeStyle=orthogonalEdgeStyle;rounded=0;orthogonalLoop=1;jettySize=auto;html=1;fontFamily=Helvetica;fontSize=12;fontColor=default;" parent="1" source="Q4x0eT5ELp3qWUwaTbMl-136" target="Q4x0eT5ELp3qWUwaTbMl-147" edge="1">
          <mxGeometry x="-0.5556" y="19" relative="1" as="geometry">
            <mxPoint as="offset" />
          </mxGeometry>
        </mxCell>
        <mxCell id="Q4x0eT5ELp3qWUwaTbMl-136" value="Switch on DIO_pinNumber" style="rhombus;whiteSpace=wrap;html=1;fillColor=#fff2cc;strokeColor=#d6b656;strokeWidth=2;fontFamily=Helvetica;" parent="1" vertex="1">
          <mxGeometry x="1089" y="149" width="130" height="80" as="geometry" />
        </mxCell>
        <mxCell id="Q4x0eT5ELp3qWUwaTbMl-137" value="TRUE" style="edgeStyle=orthogonalEdgeStyle;rounded=0;orthogonalLoop=1;jettySize=auto;html=1;fontFamily=Helvetica;fontSize=12;fontColor=default;" parent="1" source="Q4x0eT5ELp3qWUwaTbMl-139" target="Q4x0eT5ELp3qWUwaTbMl-125" edge="1">
          <mxGeometry relative="1" as="geometry" />
        </mxCell>
        <mxCell id="Q4x0eT5ELp3qWUwaTbMl-138" value="Wrong&lt;br&gt;PIN_#" style="edgeStyle=orthogonalEdgeStyle;rounded=0;orthogonalLoop=1;jettySize=auto;html=1;fontFamily=Helvetica;fontSize=12;fontColor=default;" parent="1" source="Q4x0eT5ELp3qWUwaTbMl-139" target="Q4x0eT5ELp3qWUwaTbMl-147" edge="1">
          <mxGeometry x="-0.4" y="-19" relative="1" as="geometry">
            <mxPoint as="offset" />
          </mxGeometry>
        </mxCell>
        <mxCell id="Q4x0eT5ELp3qWUwaTbMl-139" value="Switch on DIO_pinNumber" style="rhombus;whiteSpace=wrap;html=1;fillColor=#fff2cc;strokeColor=#d6b656;strokeWidth=2;fontFamily=Helvetica;" parent="1" vertex="1">
          <mxGeometry x="1504" y="149" width="130" height="80" as="geometry" />
        </mxCell>
        <mxCell id="Q4x0eT5ELp3qWUwaTbMl-140" style="edgeStyle=orthogonalEdgeStyle;rounded=0;orthogonalLoop=1;jettySize=auto;html=1;fontFamily=Helvetica;" parent="1" source="Q4x0eT5ELp3qWUwaTbMl-141" target="Q4x0eT5ELp3qWUwaTbMl-143" edge="1">
          <mxGeometry relative="1" as="geometry" />
        </mxCell>
        <mxCell id="Q4x0eT5ELp3qWUwaTbMl-141" value="SET_BIT(PORT#, DIO_pinNumber)" style="whiteSpace=wrap;html=1;fillColor=#d5e8d4;strokeColor=#82b366;strokeWidth=2;fontFamily=Helvetica;" parent="1" vertex="1">
          <mxGeometry x="1094" y="259" width="120" height="60" as="geometry" />
        </mxCell>
        <mxCell id="Q4x0eT5ELp3qWUwaTbMl-142" style="edgeStyle=orthogonalEdgeStyle;rounded=0;orthogonalLoop=1;jettySize=auto;html=1;fontFamily=Helvetica;fontSize=12;fontColor=default;" parent="1" source="Q4x0eT5ELp3qWUwaTbMl-143" target="Q4x0eT5ELp3qWUwaTbMl-152" edge="1">
          <mxGeometry relative="1" as="geometry">
            <Array as="points">
              <mxPoint x="1154" y="500" />
              <mxPoint x="1264" y="500" />
            </Array>
          </mxGeometry>
        </mxCell>
        <mxCell id="Q4x0eT5ELp3qWUwaTbMl-143" value="returnValue = DIO_OK" style="whiteSpace=wrap;html=1;fillColor=#d5e8d4;strokeColor=#82b366;strokeWidth=2;fontFamily=Helvetica;" parent="1" vertex="1">
          <mxGeometry x="1094" y="339" width="120" height="60" as="geometry" />
        </mxCell>
        <mxCell id="Q4x0eT5ELp3qWUwaTbMl-144" style="edgeStyle=orthogonalEdgeStyle;rounded=0;orthogonalLoop=1;jettySize=auto;html=1;exitX=0.25;exitY=1;exitDx=0;exitDy=0;fontFamily=Helvetica;fontSize=12;fontColor=default;" parent="1" source="Q4x0eT5ELp3qWUwaTbMl-145" target="Q4x0eT5ELp3qWUwaTbMl-152" edge="1">
          <mxGeometry relative="1" as="geometry">
            <Array as="points">
              <mxPoint x="1311" y="500" />
              <mxPoint x="1264" y="500" />
            </Array>
          </mxGeometry>
        </mxCell>
        <mxCell id="Q4x0eT5ELp3qWUwaTbMl-145" value="returnValue = DIO_WRONG_PORT_NUMBER" style="whiteSpace=wrap;html=1;fillColor=#d5e8d4;strokeColor=#82b366;strokeWidth=2;fontFamily=Helvetica;" parent="1" vertex="1">
          <mxGeometry x="1264" y="49" width="190" height="60" as="geometry" />
        </mxCell>
        <mxCell id="Q4x0eT5ELp3qWUwaTbMl-146" style="edgeStyle=orthogonalEdgeStyle;rounded=0;orthogonalLoop=1;jettySize=auto;html=1;fontFamily=Helvetica;fontSize=12;fontColor=default;exitX=0.75;exitY=1;exitDx=0;exitDy=0;" parent="1" source="Q4x0eT5ELp3qWUwaTbMl-147" target="Q4x0eT5ELp3qWUwaTbMl-152" edge="1">
          <mxGeometry relative="1" as="geometry">
            <Array as="points">
              <mxPoint x="1407" y="500" />
              <mxPoint x="1264" y="500" />
            </Array>
          </mxGeometry>
        </mxCell>
        <mxCell id="Q4x0eT5ELp3qWUwaTbMl-147" value="returnValue = DIO_WRONG_PIN_NUMBER" style="whiteSpace=wrap;html=1;fillColor=#d5e8d4;strokeColor=#82b366;strokeWidth=2;fontFamily=Helvetica;" parent="1" vertex="1">
          <mxGeometry x="1264" y="159" width="190" height="60" as="geometry" />
        </mxCell>
        <mxCell id="Q4x0eT5ELp3qWUwaTbMl-148" style="edgeStyle=orthogonalEdgeStyle;rounded=0;orthogonalLoop=1;jettySize=auto;html=1;fontFamily=Helvetica;fontSize=12;fontColor=default;" parent="1" source="Q4x0eT5ELp3qWUwaTbMl-149" target="Q4x0eT5ELp3qWUwaTbMl-152" edge="1">
          <mxGeometry relative="1" as="geometry">
            <Array as="points">
              <mxPoint x="964" y="500" />
            </Array>
          </mxGeometry>
        </mxCell>
        <mxCell id="Q4x0eT5ELp3qWUwaTbMl-149" value="returnValue = DIO_WRONG_DIRECTION" style="whiteSpace=wrap;html=1;fillColor=#d5e8d4;strokeColor=#82b366;strokeWidth=2;fontFamily=Helvetica;" parent="1" vertex="1">
          <mxGeometry x="879" y="78" width="170" height="41" as="geometry" />
        </mxCell>
        <mxCell id="Q4x0eT5ELp3qWUwaTbMl-150" value="END" style="strokeWidth=2;html=1;shape=mxgraph.flowchart.terminator;whiteSpace=wrap;fillColor=#dae8fc;strokeColor=#6c8ebf;fontFamily=Helvetica;" parent="1" vertex="1">
          <mxGeometry x="1224" y="617" width="80" height="40" as="geometry" />
        </mxCell>
        <mxCell id="Q4x0eT5ELp3qWUwaTbMl-151" value="" style="edgeStyle=orthogonalEdgeStyle;rounded=0;orthogonalLoop=1;jettySize=auto;html=1;fontFamily=Helvetica;fontSize=12;fontColor=default;" parent="1" source="Q4x0eT5ELp3qWUwaTbMl-152" target="Q4x0eT5ELp3qWUwaTbMl-150" edge="1">
          <mxGeometry relative="1" as="geometry" />
        </mxCell>
        <mxCell id="Q4x0eT5ELp3qWUwaTbMl-152" value="return returnValue" style="whiteSpace=wrap;html=1;fillColor=#d5e8d4;strokeColor=#82b366;strokeWidth=2;fontFamily=Helvetica;" parent="1" vertex="1">
          <mxGeometry x="1204" y="537" width="120" height="40" as="geometry" />
        </mxCell>
        <mxCell id="Q4x0eT5ELp3qWUwaTbMl-153" value="&lt;h1&gt;&lt;font&gt;DIO_write&lt;/font&gt;&lt;/h1&gt;" style="text;html=1;strokeColor=none;fillColor=none;spacing=5;spacingTop=-20;whiteSpace=wrap;overflow=hidden;rounded=0;fontSize=12;fontFamily=Helvetica;fontColor=default;" parent="1" vertex="1">
          <mxGeometry x="860" y="-360" width="161" height="40" as="geometry" />
        </mxCell>
        <mxCell id="Q4x0eT5ELp3qWUwaTbMl-193" style="edgeStyle=orthogonalEdgeStyle;rounded=0;orthogonalLoop=1;jettySize=auto;html=1;fontFamily=Helvetica;" parent="1" source="Q4x0eT5ELp3qWUwaTbMl-194" target="Q4x0eT5ELp3qWUwaTbMl-205" edge="1">
          <mxGeometry relative="1" as="geometry" />
        </mxCell>
        <mxCell id="Q4x0eT5ELp3qWUwaTbMl-194" value="START" style="strokeWidth=2;html=1;shape=mxgraph.flowchart.terminator;whiteSpace=wrap;fillColor=#dae8fc;strokeColor=#6c8ebf;fontFamily=Helvetica;" parent="1" vertex="1">
          <mxGeometry x="275" y="880" width="80" height="40" as="geometry" />
        </mxCell>
        <mxCell id="Q4x0eT5ELp3qWUwaTbMl-204" style="edgeStyle=orthogonalEdgeStyle;rounded=0;orthogonalLoop=1;jettySize=auto;html=1;exitX=0.5;exitY=1;exitDx=0;exitDy=0;fontFamily=Helvetica;" parent="1" source="Q4x0eT5ELp3qWUwaTbMl-205" target="Q4x0eT5ELp3qWUwaTbMl-211" edge="1">
          <mxGeometry relative="1" as="geometry">
            <mxPoint x="314.9999999999999" y="1040" as="targetPoint" />
          </mxGeometry>
        </mxCell>
        <mxCell id="Q4x0eT5ELp3qWUwaTbMl-205" value="Initialize returnValue = DIO_OK" style="whiteSpace=wrap;html=1;fillColor=#d5e8d4;strokeColor=#82b366;strokeWidth=2;fontFamily=Helvetica;" parent="1" vertex="1">
          <mxGeometry x="240" y="950" width="150" height="60" as="geometry" />
        </mxCell>
        <mxCell id="Q4x0eT5ELp3qWUwaTbMl-209" value="TRUE" style="edgeStyle=orthogonalEdgeStyle;rounded=0;orthogonalLoop=1;jettySize=auto;html=1;fontFamily=Helvetica;" parent="1" source="Q4x0eT5ELp3qWUwaTbMl-211" target="Q4x0eT5ELp3qWUwaTbMl-214" edge="1">
          <mxGeometry relative="1" as="geometry" />
        </mxCell>
        <mxCell id="Q4x0eT5ELp3qWUwaTbMl-210" value="Wrong&lt;br&gt;PORT_#" style="edgeStyle=orthogonalEdgeStyle;rounded=0;orthogonalLoop=1;jettySize=auto;html=1;fontFamily=Helvetica;fontSize=12;fontColor=default;" parent="1" source="Q4x0eT5ELp3qWUwaTbMl-211" target="Q4x0eT5ELp3qWUwaTbMl-223" edge="1">
          <mxGeometry x="0.0303" y="1" relative="1" as="geometry">
            <mxPoint as="offset" />
          </mxGeometry>
        </mxCell>
        <mxCell id="Q4x0eT5ELp3qWUwaTbMl-211" value="Switch on DIO_portNumber" style="rhombus;whiteSpace=wrap;html=1;fillColor=#fff2cc;strokeColor=#d6b656;strokeWidth=2;fontFamily=Helvetica;" parent="1" vertex="1">
          <mxGeometry x="247.5" y="1031" width="135" height="80" as="geometry" />
        </mxCell>
        <mxCell id="Q4x0eT5ELp3qWUwaTbMl-212" value="TRUE" style="edgeStyle=orthogonalEdgeStyle;rounded=0;orthogonalLoop=1;jettySize=auto;html=1;fontFamily=Helvetica;fontSize=12;fontColor=default;" parent="1" source="Q4x0eT5ELp3qWUwaTbMl-214" target="Q4x0eT5ELp3qWUwaTbMl-219" edge="1">
          <mxGeometry relative="1" as="geometry" />
        </mxCell>
        <mxCell id="Q4x0eT5ELp3qWUwaTbMl-213" value="Wrong&lt;br&gt;PIN_#" style="edgeStyle=orthogonalEdgeStyle;rounded=0;orthogonalLoop=1;jettySize=auto;html=1;fontFamily=Helvetica;fontSize=12;fontColor=default;" parent="1" source="Q4x0eT5ELp3qWUwaTbMl-214" target="Q4x0eT5ELp3qWUwaTbMl-225" edge="1">
          <mxGeometry x="-0.1429" y="1" relative="1" as="geometry">
            <mxPoint as="offset" />
          </mxGeometry>
        </mxCell>
        <mxCell id="Q4x0eT5ELp3qWUwaTbMl-214" value="Switch on DIO_pinNumber" style="rhombus;whiteSpace=wrap;html=1;fillColor=#fff2cc;strokeColor=#d6b656;strokeWidth=2;fontFamily=Helvetica;" parent="1" vertex="1">
          <mxGeometry x="250" y="1151" width="130" height="80" as="geometry" />
        </mxCell>
        <mxCell id="Q4x0eT5ELp3qWUwaTbMl-218" style="edgeStyle=orthogonalEdgeStyle;rounded=0;orthogonalLoop=1;jettySize=auto;html=1;fontFamily=Helvetica;" parent="1" source="Q4x0eT5ELp3qWUwaTbMl-219" target="Q4x0eT5ELp3qWUwaTbMl-221" edge="1">
          <mxGeometry relative="1" as="geometry" />
        </mxCell>
        <mxCell id="Q4x0eT5ELp3qWUwaTbMl-219" value="GET_BIT(PIN#, DIO_pinNumber, *value)" style="whiteSpace=wrap;html=1;fillColor=#d5e8d4;strokeColor=#82b366;strokeWidth=2;fontFamily=Helvetica;" parent="1" vertex="1">
          <mxGeometry x="255" y="1261" width="120" height="60" as="geometry" />
        </mxCell>
        <mxCell id="Q4x0eT5ELp3qWUwaTbMl-232" style="edgeStyle=orthogonalEdgeStyle;rounded=0;orthogonalLoop=1;jettySize=auto;html=1;fontFamily=Helvetica;fontSize=12;fontColor=default;" parent="1" source="Q4x0eT5ELp3qWUwaTbMl-221" target="Q4x0eT5ELp3qWUwaTbMl-230" edge="1">
          <mxGeometry relative="1" as="geometry" />
        </mxCell>
        <mxCell id="Q4x0eT5ELp3qWUwaTbMl-221" value="returnValue = DIO_OK" style="whiteSpace=wrap;html=1;fillColor=#d5e8d4;strokeColor=#82b366;strokeWidth=2;fontFamily=Helvetica;" parent="1" vertex="1">
          <mxGeometry x="255" y="1341" width="120" height="60" as="geometry" />
        </mxCell>
        <mxCell id="Q4x0eT5ELp3qWUwaTbMl-234" style="edgeStyle=orthogonalEdgeStyle;rounded=0;orthogonalLoop=1;jettySize=auto;html=1;entryX=1;entryY=0.5;entryDx=0;entryDy=0;fontFamily=Helvetica;fontSize=12;fontColor=default;" parent="1" edge="1">
          <mxGeometry relative="1" as="geometry">
            <mxPoint x="730" y="1101.9999999999998" as="sourcePoint" />
            <mxPoint x="545.9999999999998" y="1451" as="targetPoint" />
            <Array as="points">
              <mxPoint x="730" y="1371" />
              <mxPoint x="546" y="1371" />
            </Array>
          </mxGeometry>
        </mxCell>
        <mxCell id="Q4x0eT5ELp3qWUwaTbMl-223" value="returnValue = DIO_WRONG_PORT_NUMBER" style="whiteSpace=wrap;html=1;fillColor=#d5e8d4;strokeColor=#82b366;strokeWidth=2;fontFamily=Helvetica;" parent="1" vertex="1">
          <mxGeometry x="640" y="1041" width="190" height="60" as="geometry" />
        </mxCell>
        <mxCell id="Q4x0eT5ELp3qWUwaTbMl-233" style="edgeStyle=orthogonalEdgeStyle;rounded=0;orthogonalLoop=1;jettySize=auto;html=1;fontFamily=Helvetica;fontSize=12;fontColor=default;" parent="1" source="Q4x0eT5ELp3qWUwaTbMl-225" target="Q4x0eT5ELp3qWUwaTbMl-230" edge="1">
          <mxGeometry relative="1" as="geometry" />
        </mxCell>
        <mxCell id="Q4x0eT5ELp3qWUwaTbMl-225" value="returnValue = DIO_WRONG_PIN_NUMBER" style="whiteSpace=wrap;html=1;fillColor=#d5e8d4;strokeColor=#82b366;strokeWidth=2;fontFamily=Helvetica;" parent="1" vertex="1">
          <mxGeometry x="450" y="1160" width="190" height="60" as="geometry" />
        </mxCell>
        <mxCell id="Q4x0eT5ELp3qWUwaTbMl-228" value="END" style="strokeWidth=2;html=1;shape=mxgraph.flowchart.terminator;whiteSpace=wrap;fillColor=#dae8fc;strokeColor=#6c8ebf;fontFamily=Helvetica;" parent="1" vertex="1">
          <mxGeometry x="506" y="1530" width="80" height="40" as="geometry" />
        </mxCell>
        <mxCell id="Q4x0eT5ELp3qWUwaTbMl-229" value="" style="edgeStyle=orthogonalEdgeStyle;rounded=0;orthogonalLoop=1;jettySize=auto;html=1;fontFamily=Helvetica;fontSize=12;fontColor=default;" parent="1" source="Q4x0eT5ELp3qWUwaTbMl-230" target="Q4x0eT5ELp3qWUwaTbMl-228" edge="1">
          <mxGeometry relative="1" as="geometry" />
        </mxCell>
        <mxCell id="Q4x0eT5ELp3qWUwaTbMl-230" value="return returnValue" style="whiteSpace=wrap;html=1;fillColor=#d5e8d4;strokeColor=#82b366;strokeWidth=2;fontFamily=Helvetica;" parent="1" vertex="1">
          <mxGeometry x="486" y="1450" width="120" height="40" as="geometry" />
        </mxCell>
        <mxCell id="Q4x0eT5ELp3qWUwaTbMl-231" value="&lt;h1&gt;&lt;font&gt;DIO_read&lt;/font&gt;&lt;/h1&gt;" style="text;html=1;strokeColor=none;fillColor=none;spacing=5;spacingTop=-20;whiteSpace=wrap;overflow=hidden;rounded=0;fontSize=12;fontFamily=Helvetica;fontColor=default;" parent="1" vertex="1">
          <mxGeometry x="80" y="760" width="140" height="40" as="geometry" />
        </mxCell>
        <mxCell id="Q4x0eT5ELp3qWUwaTbMl-236" style="edgeStyle=orthogonalEdgeStyle;rounded=0;orthogonalLoop=1;jettySize=auto;html=1;fontFamily=Helvetica;" parent="1" source="Q4x0eT5ELp3qWUwaTbMl-237" target="Q4x0eT5ELp3qWUwaTbMl-239" edge="1">
          <mxGeometry relative="1" as="geometry" />
        </mxCell>
        <mxCell id="Q4x0eT5ELp3qWUwaTbMl-237" value="START" style="strokeWidth=2;html=1;shape=mxgraph.flowchart.terminator;whiteSpace=wrap;fillColor=#dae8fc;strokeColor=#6c8ebf;fontFamily=Helvetica;" parent="1" vertex="1">
          <mxGeometry x="1117" y="880" width="80" height="40" as="geometry" />
        </mxCell>
        <mxCell id="Q4x0eT5ELp3qWUwaTbMl-238" style="edgeStyle=orthogonalEdgeStyle;rounded=0;orthogonalLoop=1;jettySize=auto;html=1;exitX=0.5;exitY=1;exitDx=0;exitDy=0;fontFamily=Helvetica;" parent="1" source="Q4x0eT5ELp3qWUwaTbMl-239" target="Q4x0eT5ELp3qWUwaTbMl-242" edge="1">
          <mxGeometry relative="1" as="geometry">
            <mxPoint x="1157" y="1040" as="targetPoint" />
          </mxGeometry>
        </mxCell>
        <mxCell id="Q4x0eT5ELp3qWUwaTbMl-239" value="Initialize returnValue = DIO_OK" style="whiteSpace=wrap;html=1;fillColor=#d5e8d4;strokeColor=#82b366;strokeWidth=2;fontFamily=Helvetica;" parent="1" vertex="1">
          <mxGeometry x="1082" y="950" width="150" height="60" as="geometry" />
        </mxCell>
        <mxCell id="Q4x0eT5ELp3qWUwaTbMl-240" value="TRUE" style="edgeStyle=orthogonalEdgeStyle;rounded=0;orthogonalLoop=1;jettySize=auto;html=1;fontFamily=Helvetica;" parent="1" source="Q4x0eT5ELp3qWUwaTbMl-242" target="Q4x0eT5ELp3qWUwaTbMl-245" edge="1">
          <mxGeometry relative="1" as="geometry" />
        </mxCell>
        <mxCell id="Q4x0eT5ELp3qWUwaTbMl-241" value="Wrong&lt;br&gt;PORT_#" style="edgeStyle=orthogonalEdgeStyle;rounded=0;orthogonalLoop=1;jettySize=auto;html=1;fontFamily=Helvetica;fontSize=12;fontColor=default;" parent="1" source="Q4x0eT5ELp3qWUwaTbMl-242" target="Q4x0eT5ELp3qWUwaTbMl-251" edge="1">
          <mxGeometry x="0.0303" y="1" relative="1" as="geometry">
            <mxPoint as="offset" />
          </mxGeometry>
        </mxCell>
        <mxCell id="Q4x0eT5ELp3qWUwaTbMl-242" value="Switch on DIO_portNumber" style="rhombus;whiteSpace=wrap;html=1;fillColor=#fff2cc;strokeColor=#d6b656;strokeWidth=2;fontFamily=Helvetica;" parent="1" vertex="1">
          <mxGeometry x="1089.5" y="1031" width="135" height="80" as="geometry" />
        </mxCell>
        <mxCell id="Q4x0eT5ELp3qWUwaTbMl-243" value="TRUE" style="edgeStyle=orthogonalEdgeStyle;rounded=0;orthogonalLoop=1;jettySize=auto;html=1;fontFamily=Helvetica;fontSize=12;fontColor=default;" parent="1" source="Q4x0eT5ELp3qWUwaTbMl-245" target="Q4x0eT5ELp3qWUwaTbMl-247" edge="1">
          <mxGeometry relative="1" as="geometry" />
        </mxCell>
        <mxCell id="Q4x0eT5ELp3qWUwaTbMl-244" value="Wrong&lt;br&gt;PIN_#" style="edgeStyle=orthogonalEdgeStyle;rounded=0;orthogonalLoop=1;jettySize=auto;html=1;fontFamily=Helvetica;fontSize=12;fontColor=default;" parent="1" source="Q4x0eT5ELp3qWUwaTbMl-245" target="Q4x0eT5ELp3qWUwaTbMl-253" edge="1">
          <mxGeometry x="-0.1429" y="1" relative="1" as="geometry">
            <mxPoint as="offset" />
          </mxGeometry>
        </mxCell>
        <mxCell id="Q4x0eT5ELp3qWUwaTbMl-245" value="Switch on DIO_pinNumber" style="rhombus;whiteSpace=wrap;html=1;fillColor=#fff2cc;strokeColor=#d6b656;strokeWidth=2;fontFamily=Helvetica;" parent="1" vertex="1">
          <mxGeometry x="1092" y="1151" width="130" height="80" as="geometry" />
        </mxCell>
        <mxCell id="Q4x0eT5ELp3qWUwaTbMl-246" style="edgeStyle=orthogonalEdgeStyle;rounded=0;orthogonalLoop=1;jettySize=auto;html=1;fontFamily=Helvetica;" parent="1" source="Q4x0eT5ELp3qWUwaTbMl-247" target="Q4x0eT5ELp3qWUwaTbMl-249" edge="1">
          <mxGeometry relative="1" as="geometry" />
        </mxCell>
        <mxCell id="Q4x0eT5ELp3qWUwaTbMl-247" value="TGL_BIT(PORT#, DIO_pinNumber)" style="whiteSpace=wrap;html=1;fillColor=#d5e8d4;strokeColor=#82b366;strokeWidth=2;fontFamily=Helvetica;" parent="1" vertex="1">
          <mxGeometry x="1097" y="1261" width="120" height="60" as="geometry" />
        </mxCell>
        <mxCell id="Q4x0eT5ELp3qWUwaTbMl-248" style="edgeStyle=orthogonalEdgeStyle;rounded=0;orthogonalLoop=1;jettySize=auto;html=1;fontFamily=Helvetica;fontSize=12;fontColor=default;" parent="1" source="Q4x0eT5ELp3qWUwaTbMl-249" target="Q4x0eT5ELp3qWUwaTbMl-256" edge="1">
          <mxGeometry relative="1" as="geometry" />
        </mxCell>
        <mxCell id="Q4x0eT5ELp3qWUwaTbMl-249" value="returnValue = DIO_OK" style="whiteSpace=wrap;html=1;fillColor=#d5e8d4;strokeColor=#82b366;strokeWidth=2;fontFamily=Helvetica;" parent="1" vertex="1">
          <mxGeometry x="1097" y="1341" width="120" height="60" as="geometry" />
        </mxCell>
        <mxCell id="Q4x0eT5ELp3qWUwaTbMl-250" style="edgeStyle=orthogonalEdgeStyle;rounded=0;orthogonalLoop=1;jettySize=auto;html=1;entryX=1;entryY=0.5;entryDx=0;entryDy=0;fontFamily=Helvetica;fontSize=12;fontColor=default;" parent="1" edge="1">
          <mxGeometry relative="1" as="geometry">
            <mxPoint x="1572" y="1102" as="sourcePoint" />
            <mxPoint x="1388" y="1451" as="targetPoint" />
            <Array as="points">
              <mxPoint x="1572" y="1371" />
              <mxPoint x="1388" y="1371" />
            </Array>
          </mxGeometry>
        </mxCell>
        <mxCell id="Q4x0eT5ELp3qWUwaTbMl-251" value="returnValue = DIO_WRONG_PORT_NUMBER" style="whiteSpace=wrap;html=1;fillColor=#d5e8d4;strokeColor=#82b366;strokeWidth=2;fontFamily=Helvetica;" parent="1" vertex="1">
          <mxGeometry x="1482" y="1041" width="190" height="60" as="geometry" />
        </mxCell>
        <mxCell id="Q4x0eT5ELp3qWUwaTbMl-252" style="edgeStyle=orthogonalEdgeStyle;rounded=0;orthogonalLoop=1;jettySize=auto;html=1;fontFamily=Helvetica;fontSize=12;fontColor=default;" parent="1" source="Q4x0eT5ELp3qWUwaTbMl-253" target="Q4x0eT5ELp3qWUwaTbMl-256" edge="1">
          <mxGeometry relative="1" as="geometry" />
        </mxCell>
        <mxCell id="Q4x0eT5ELp3qWUwaTbMl-253" value="returnValue = DIO_WRONG_PIN_NUMBER" style="whiteSpace=wrap;html=1;fillColor=#d5e8d4;strokeColor=#82b366;strokeWidth=2;fontFamily=Helvetica;" parent="1" vertex="1">
          <mxGeometry x="1292" y="1160" width="190" height="60" as="geometry" />
        </mxCell>
        <mxCell id="Q4x0eT5ELp3qWUwaTbMl-254" value="END" style="strokeWidth=2;html=1;shape=mxgraph.flowchart.terminator;whiteSpace=wrap;fillColor=#dae8fc;strokeColor=#6c8ebf;fontFamily=Helvetica;" parent="1" vertex="1">
          <mxGeometry x="1348" y="1530" width="80" height="40" as="geometry" />
        </mxCell>
        <mxCell id="Q4x0eT5ELp3qWUwaTbMl-255" value="" style="edgeStyle=orthogonalEdgeStyle;rounded=0;orthogonalLoop=1;jettySize=auto;html=1;fontFamily=Helvetica;fontSize=12;fontColor=default;" parent="1" source="Q4x0eT5ELp3qWUwaTbMl-256" target="Q4x0eT5ELp3qWUwaTbMl-254" edge="1">
          <mxGeometry relative="1" as="geometry" />
        </mxCell>
        <mxCell id="Q4x0eT5ELp3qWUwaTbMl-256" value="return returnValue" style="whiteSpace=wrap;html=1;fillColor=#d5e8d4;strokeColor=#82b366;strokeWidth=2;fontFamily=Helvetica;" parent="1" vertex="1">
          <mxGeometry x="1328" y="1450" width="120" height="40" as="geometry" />
        </mxCell>
        <mxCell id="Q4x0eT5ELp3qWUwaTbMl-257" value="&lt;h1&gt;&lt;font&gt;DIO_toggle&lt;/font&gt;&lt;/h1&gt;" style="text;html=1;strokeColor=none;fillColor=none;spacing=5;spacingTop=-20;whiteSpace=wrap;overflow=hidden;rounded=0;fontSize=12;fontFamily=Helvetica;fontColor=default;" parent="1" vertex="1">
          <mxGeometry x="882" y="760" width="140" height="40" as="geometry" />
        </mxCell>
        <mxCell id="Q4x0eT5ELp3qWUwaTbMl-258" style="edgeStyle=orthogonalEdgeStyle;rounded=0;orthogonalLoop=1;jettySize=auto;html=1;fontFamily=Helvetica;" parent="1" source="Q4x0eT5ELp3qWUwaTbMl-259" target="Q4x0eT5ELp3qWUwaTbMl-270" edge="1">
          <mxGeometry relative="1" as="geometry" />
        </mxCell>
        <mxCell id="Q4x0eT5ELp3qWUwaTbMl-259" value="START" style="strokeWidth=2;html=1;shape=mxgraph.flowchart.terminator;whiteSpace=wrap;fillColor=#dae8fc;strokeColor=#6c8ebf;fontFamily=Helvetica;" parent="1" vertex="1">
          <mxGeometry x="315" y="1780" width="80" height="40" as="geometry" />
        </mxCell>
        <mxCell id="Q4x0eT5ELp3qWUwaTbMl-260" value="DISABLE" style="edgeStyle=orthogonalEdgeStyle;rounded=0;orthogonalLoop=1;jettySize=auto;html=1;fontFamily=Helvetica;" parent="1" source="Q4x0eT5ELp3qWUwaTbMl-263" target="Q4x0eT5ELp3qWUwaTbMl-266" edge="1">
          <mxGeometry relative="1" as="geometry" />
        </mxCell>
        <mxCell id="Q4x0eT5ELp3qWUwaTbMl-261" value="ENABLE" style="edgeStyle=orthogonalEdgeStyle;rounded=0;orthogonalLoop=1;jettySize=auto;html=1;fontFamily=Helvetica;" parent="1" source="Q4x0eT5ELp3qWUwaTbMl-263" target="Q4x0eT5ELp3qWUwaTbMl-276" edge="1">
          <mxGeometry relative="1" as="geometry" />
        </mxCell>
        <mxCell id="Q4x0eT5ELp3qWUwaTbMl-262" value="Wrong&lt;br&gt;Value" style="edgeStyle=orthogonalEdgeStyle;rounded=0;orthogonalLoop=1;jettySize=auto;html=1;fontFamily=Helvetica;fontSize=12;fontColor=default;" parent="1" source="Q4x0eT5ELp3qWUwaTbMl-263" target="Q4x0eT5ELp3qWUwaTbMl-292" edge="1">
          <mxGeometry relative="1" as="geometry" />
        </mxCell>
        <mxCell id="Q4x0eT5ELp3qWUwaTbMl-263" value="Switch on DIO_pullupState" style="rhombus;whiteSpace=wrap;html=1;fillColor=#fff2cc;strokeColor=#d6b656;strokeWidth=2;fontFamily=Helvetica;" parent="1" vertex="1">
          <mxGeometry x="290" y="1930" width="130" height="90" as="geometry" />
        </mxCell>
        <mxCell id="Q4x0eT5ELp3qWUwaTbMl-264" style="edgeStyle=orthogonalEdgeStyle;rounded=0;orthogonalLoop=1;jettySize=auto;html=1;fontFamily=Helvetica;" parent="1" source="Q4x0eT5ELp3qWUwaTbMl-266" target="Q4x0eT5ELp3qWUwaTbMl-282" edge="1">
          <mxGeometry relative="1" as="geometry" />
        </mxCell>
        <mxCell id="Q4x0eT5ELp3qWUwaTbMl-265" value="Wrong&lt;br&gt;PORT_#" style="edgeStyle=orthogonalEdgeStyle;rounded=0;orthogonalLoop=1;jettySize=auto;html=1;fontFamily=Helvetica;fontSize=12;fontColor=default;" parent="1" source="Q4x0eT5ELp3qWUwaTbMl-266" target="Q4x0eT5ELp3qWUwaTbMl-288" edge="1">
          <mxGeometry x="-0.4737" y="-19" relative="1" as="geometry">
            <mxPoint as="offset" />
          </mxGeometry>
        </mxCell>
        <mxCell id="Q4x0eT5ELp3qWUwaTbMl-266" value="Switch on DIO_portNumber" style="rhombus;whiteSpace=wrap;html=1;fillColor=#fff2cc;strokeColor=#d6b656;strokeWidth=2;fontFamily=Helvetica;" parent="1" vertex="1">
          <mxGeometry x="702.5" y="2059" width="135" height="80" as="geometry" />
        </mxCell>
        <mxCell id="Q4x0eT5ELp3qWUwaTbMl-267" style="edgeStyle=orthogonalEdgeStyle;rounded=0;orthogonalLoop=1;jettySize=auto;html=1;entryX=0.5;entryY=0;entryDx=0;entryDy=0;fontFamily=Helvetica;" parent="1" source="Q4x0eT5ELp3qWUwaTbMl-268" target="Q4x0eT5ELp3qWUwaTbMl-273" edge="1">
          <mxGeometry relative="1" as="geometry" />
        </mxCell>
        <mxCell id="Q4x0eT5ELp3qWUwaTbMl-268" value="CLR_BIT(PORT#, DIO_pinNumber)" style="whiteSpace=wrap;html=1;fillColor=#d5e8d4;strokeColor=#82b366;strokeWidth=2;fontFamily=Helvetica;" parent="1" vertex="1">
          <mxGeometry x="710" y="2280" width="120" height="60" as="geometry" />
        </mxCell>
        <mxCell id="Q4x0eT5ELp3qWUwaTbMl-269" style="edgeStyle=orthogonalEdgeStyle;rounded=0;orthogonalLoop=1;jettySize=auto;html=1;exitX=0.5;exitY=1;exitDx=0;exitDy=0;fontFamily=Helvetica;" parent="1" source="Q4x0eT5ELp3qWUwaTbMl-270" target="Q4x0eT5ELp3qWUwaTbMl-263" edge="1">
          <mxGeometry relative="1" as="geometry" />
        </mxCell>
        <mxCell id="Q4x0eT5ELp3qWUwaTbMl-270" value="Initialize returnValue = DIO_OK" style="whiteSpace=wrap;html=1;fillColor=#d5e8d4;strokeColor=#82b366;strokeWidth=2;fontFamily=Helvetica;" parent="1" vertex="1">
          <mxGeometry x="280" y="1850" width="150" height="60" as="geometry" />
        </mxCell>
        <mxCell id="Q4x0eT5ELp3qWUwaTbMl-271" style="edgeStyle=orthogonalEdgeStyle;rounded=0;orthogonalLoop=1;jettySize=auto;html=1;exitX=0.5;exitY=1;exitDx=0;exitDy=0;fontFamily=Helvetica;" parent="1" source="Q4x0eT5ELp3qWUwaTbMl-268" target="Q4x0eT5ELp3qWUwaTbMl-268" edge="1">
          <mxGeometry relative="1" as="geometry" />
        </mxCell>
        <mxCell id="Q4x0eT5ELp3qWUwaTbMl-272" style="edgeStyle=orthogonalEdgeStyle;rounded=0;orthogonalLoop=1;jettySize=auto;html=1;fontFamily=Helvetica;fontSize=12;fontColor=default;" parent="1" source="Q4x0eT5ELp3qWUwaTbMl-273" target="Q4x0eT5ELp3qWUwaTbMl-295" edge="1">
          <mxGeometry relative="1" as="geometry">
            <Array as="points">
              <mxPoint x="770" y="2520" />
              <mxPoint x="465" y="2520" />
            </Array>
          </mxGeometry>
        </mxCell>
        <mxCell id="Q4x0eT5ELp3qWUwaTbMl-273" value="returnValue = DIO_OK" style="whiteSpace=wrap;html=1;fillColor=#d5e8d4;strokeColor=#82b366;strokeWidth=2;fontFamily=Helvetica;" parent="1" vertex="1">
          <mxGeometry x="710" y="2360" width="120" height="60" as="geometry" />
        </mxCell>
        <mxCell id="Q4x0eT5ELp3qWUwaTbMl-274" value="TRUE" style="edgeStyle=orthogonalEdgeStyle;rounded=0;orthogonalLoop=1;jettySize=auto;html=1;fontFamily=Helvetica;" parent="1" source="Q4x0eT5ELp3qWUwaTbMl-276" target="Q4x0eT5ELp3qWUwaTbMl-279" edge="1">
          <mxGeometry relative="1" as="geometry" />
        </mxCell>
        <mxCell id="Q4x0eT5ELp3qWUwaTbMl-275" value="Wrong&lt;br&gt;PORT_#" style="edgeStyle=orthogonalEdgeStyle;rounded=0;orthogonalLoop=1;jettySize=auto;html=1;fontFamily=Helvetica;fontSize=12;fontColor=default;" parent="1" source="Q4x0eT5ELp3qWUwaTbMl-276" target="Q4x0eT5ELp3qWUwaTbMl-288" edge="1">
          <mxGeometry x="-0.6471" y="19" relative="1" as="geometry">
            <mxPoint x="1" as="offset" />
          </mxGeometry>
        </mxCell>
        <mxCell id="Q4x0eT5ELp3qWUwaTbMl-276" value="Switch on DIO_portNumber" style="rhombus;whiteSpace=wrap;html=1;fillColor=#fff2cc;strokeColor=#d6b656;strokeWidth=2;fontFamily=Helvetica;" parent="1" vertex="1">
          <mxGeometry x="287.5" y="2059" width="135" height="80" as="geometry" />
        </mxCell>
        <mxCell id="Q4x0eT5ELp3qWUwaTbMl-277" value="TRUE" style="edgeStyle=orthogonalEdgeStyle;rounded=0;orthogonalLoop=1;jettySize=auto;html=1;fontFamily=Helvetica;fontSize=12;fontColor=default;" parent="1" source="Q4x0eT5ELp3qWUwaTbMl-279" target="Q4x0eT5ELp3qWUwaTbMl-284" edge="1">
          <mxGeometry relative="1" as="geometry" />
        </mxCell>
        <mxCell id="Q4x0eT5ELp3qWUwaTbMl-278" value="Wrong&lt;br&gt;PIN_#" style="edgeStyle=orthogonalEdgeStyle;rounded=0;orthogonalLoop=1;jettySize=auto;html=1;fontFamily=Helvetica;fontSize=12;fontColor=default;" parent="1" source="Q4x0eT5ELp3qWUwaTbMl-279" target="Q4x0eT5ELp3qWUwaTbMl-290" edge="1">
          <mxGeometry x="-0.5556" y="19" relative="1" as="geometry">
            <mxPoint as="offset" />
          </mxGeometry>
        </mxCell>
        <mxCell id="Q4x0eT5ELp3qWUwaTbMl-279" value="Switch on DIO_pinNumber" style="rhombus;whiteSpace=wrap;html=1;fillColor=#fff2cc;strokeColor=#d6b656;strokeWidth=2;fontFamily=Helvetica;" parent="1" vertex="1">
          <mxGeometry x="290" y="2169" width="130" height="80" as="geometry" />
        </mxCell>
        <mxCell id="Q4x0eT5ELp3qWUwaTbMl-280" value="TRUE" style="edgeStyle=orthogonalEdgeStyle;rounded=0;orthogonalLoop=1;jettySize=auto;html=1;fontFamily=Helvetica;fontSize=12;fontColor=default;" parent="1" source="Q4x0eT5ELp3qWUwaTbMl-282" target="Q4x0eT5ELp3qWUwaTbMl-268" edge="1">
          <mxGeometry relative="1" as="geometry" />
        </mxCell>
        <mxCell id="Q4x0eT5ELp3qWUwaTbMl-281" value="Wrong&lt;br&gt;PIN_#" style="edgeStyle=orthogonalEdgeStyle;rounded=0;orthogonalLoop=1;jettySize=auto;html=1;fontFamily=Helvetica;fontSize=12;fontColor=default;" parent="1" source="Q4x0eT5ELp3qWUwaTbMl-282" target="Q4x0eT5ELp3qWUwaTbMl-290" edge="1">
          <mxGeometry x="-0.4" y="-19" relative="1" as="geometry">
            <mxPoint as="offset" />
          </mxGeometry>
        </mxCell>
        <mxCell id="Q4x0eT5ELp3qWUwaTbMl-282" value="Switch on DIO_pinNumber" style="rhombus;whiteSpace=wrap;html=1;fillColor=#fff2cc;strokeColor=#d6b656;strokeWidth=2;fontFamily=Helvetica;" parent="1" vertex="1">
          <mxGeometry x="705" y="2169" width="130" height="80" as="geometry" />
        </mxCell>
        <mxCell id="Q4x0eT5ELp3qWUwaTbMl-283" style="edgeStyle=orthogonalEdgeStyle;rounded=0;orthogonalLoop=1;jettySize=auto;html=1;fontFamily=Helvetica;" parent="1" source="Q4x0eT5ELp3qWUwaTbMl-284" target="Q4x0eT5ELp3qWUwaTbMl-286" edge="1">
          <mxGeometry relative="1" as="geometry" />
        </mxCell>
        <mxCell id="Q4x0eT5ELp3qWUwaTbMl-284" value="SET_BIT(PORT#, DIO_pinNumber)" style="whiteSpace=wrap;html=1;fillColor=#d5e8d4;strokeColor=#82b366;strokeWidth=2;fontFamily=Helvetica;" parent="1" vertex="1">
          <mxGeometry x="295" y="2279" width="120" height="60" as="geometry" />
        </mxCell>
        <mxCell id="Q4x0eT5ELp3qWUwaTbMl-285" style="edgeStyle=orthogonalEdgeStyle;rounded=0;orthogonalLoop=1;jettySize=auto;html=1;fontFamily=Helvetica;fontSize=12;fontColor=default;" parent="1" source="Q4x0eT5ELp3qWUwaTbMl-286" target="Q4x0eT5ELp3qWUwaTbMl-295" edge="1">
          <mxGeometry relative="1" as="geometry">
            <Array as="points">
              <mxPoint x="355" y="2520" />
              <mxPoint x="465" y="2520" />
            </Array>
          </mxGeometry>
        </mxCell>
        <mxCell id="Q4x0eT5ELp3qWUwaTbMl-286" value="returnValue = DIO_OK" style="whiteSpace=wrap;html=1;fillColor=#d5e8d4;strokeColor=#82b366;strokeWidth=2;fontFamily=Helvetica;" parent="1" vertex="1">
          <mxGeometry x="295" y="2359" width="120" height="60" as="geometry" />
        </mxCell>
        <mxCell id="Q4x0eT5ELp3qWUwaTbMl-287" style="edgeStyle=orthogonalEdgeStyle;rounded=0;orthogonalLoop=1;jettySize=auto;html=1;exitX=0.25;exitY=1;exitDx=0;exitDy=0;fontFamily=Helvetica;fontSize=12;fontColor=default;" parent="1" source="Q4x0eT5ELp3qWUwaTbMl-288" target="Q4x0eT5ELp3qWUwaTbMl-295" edge="1">
          <mxGeometry relative="1" as="geometry">
            <Array as="points">
              <mxPoint x="512" y="2520" />
              <mxPoint x="465" y="2520" />
            </Array>
          </mxGeometry>
        </mxCell>
        <mxCell id="Q4x0eT5ELp3qWUwaTbMl-288" value="returnValue = DIO_WRONG_PORT_NUMBER" style="whiteSpace=wrap;html=1;fillColor=#d5e8d4;strokeColor=#82b366;strokeWidth=2;fontFamily=Helvetica;" parent="1" vertex="1">
          <mxGeometry x="465" y="2069" width="190" height="60" as="geometry" />
        </mxCell>
        <mxCell id="Q4x0eT5ELp3qWUwaTbMl-289" style="edgeStyle=orthogonalEdgeStyle;rounded=0;orthogonalLoop=1;jettySize=auto;html=1;fontFamily=Helvetica;fontSize=12;fontColor=default;exitX=0.75;exitY=1;exitDx=0;exitDy=0;" parent="1" source="Q4x0eT5ELp3qWUwaTbMl-290" target="Q4x0eT5ELp3qWUwaTbMl-295" edge="1">
          <mxGeometry relative="1" as="geometry">
            <Array as="points">
              <mxPoint x="608" y="2520" />
              <mxPoint x="465" y="2520" />
            </Array>
          </mxGeometry>
        </mxCell>
        <mxCell id="Q4x0eT5ELp3qWUwaTbMl-290" value="returnValue = DIO_WRONG_PIN_NUMBER" style="whiteSpace=wrap;html=1;fillColor=#d5e8d4;strokeColor=#82b366;strokeWidth=2;fontFamily=Helvetica;" parent="1" vertex="1">
          <mxGeometry x="465" y="2179" width="190" height="60" as="geometry" />
        </mxCell>
        <mxCell id="Q4x0eT5ELp3qWUwaTbMl-291" style="edgeStyle=orthogonalEdgeStyle;rounded=0;orthogonalLoop=1;jettySize=auto;html=1;fontFamily=Helvetica;fontSize=12;fontColor=default;" parent="1" source="Q4x0eT5ELp3qWUwaTbMl-292" target="Q4x0eT5ELp3qWUwaTbMl-295" edge="1">
          <mxGeometry relative="1" as="geometry">
            <Array as="points">
              <mxPoint x="165" y="2520" />
            </Array>
          </mxGeometry>
        </mxCell>
        <mxCell id="Q4x0eT5ELp3qWUwaTbMl-292" value="returnValue = DIO_WRONG_VALUE" style="whiteSpace=wrap;html=1;fillColor=#d5e8d4;strokeColor=#82b366;strokeWidth=2;fontFamily=Helvetica;" parent="1" vertex="1">
          <mxGeometry x="80" y="2098" width="170" height="41" as="geometry" />
        </mxCell>
        <mxCell id="Q4x0eT5ELp3qWUwaTbMl-293" value="END" style="strokeWidth=2;html=1;shape=mxgraph.flowchart.terminator;whiteSpace=wrap;fillColor=#dae8fc;strokeColor=#6c8ebf;fontFamily=Helvetica;" parent="1" vertex="1">
          <mxGeometry x="425" y="2637" width="80" height="40" as="geometry" />
        </mxCell>
        <mxCell id="Q4x0eT5ELp3qWUwaTbMl-294" value="" style="edgeStyle=orthogonalEdgeStyle;rounded=0;orthogonalLoop=1;jettySize=auto;html=1;fontFamily=Helvetica;fontSize=12;fontColor=default;" parent="1" source="Q4x0eT5ELp3qWUwaTbMl-295" target="Q4x0eT5ELp3qWUwaTbMl-293" edge="1">
          <mxGeometry relative="1" as="geometry" />
        </mxCell>
        <mxCell id="Q4x0eT5ELp3qWUwaTbMl-295" value="return returnValue" style="whiteSpace=wrap;html=1;fillColor=#d5e8d4;strokeColor=#82b366;strokeWidth=2;fontFamily=Helvetica;" parent="1" vertex="1">
          <mxGeometry x="405" y="2557" width="120" height="40" as="geometry" />
        </mxCell>
        <mxCell id="Q4x0eT5ELp3qWUwaTbMl-296" value="&lt;h1&gt;&lt;font&gt;DIO_pinPullUp&lt;/font&gt;&lt;/h1&gt;" style="text;html=1;strokeColor=none;fillColor=none;spacing=5;spacingTop=-20;whiteSpace=wrap;overflow=hidden;rounded=0;fontSize=12;fontFamily=Helvetica;fontColor=default;" parent="1" vertex="1">
          <mxGeometry x="90" y="1650" width="190" height="40" as="geometry" />
        </mxCell>
      </root>
    </mxGraphModel>
  </diagram>
</mxfile>
